<?xml version="1.0" encoding="UTF-8"?>
<svg xmlns="http://www.w3.org/2000/svg" width="900" height="900" viewBox="0 0 900 900">
<rect x="0" y="0" width="100%" height="100%" fill="white"/>
<text x="30" y="30" font-family="monospace" font-size="14">convex (n=200, seed=0) | decomposition diagonals=0</text>
<g stroke="#1f77b4" stroke-width="1" fill="none" opacity="0.60">
</g>
<path d="M 869.87,422.77 L 869.32,410.33 L 868.37,397.90 L 866.99,385.50 L 865.21,373.14 L 863.02,360.83 L 860.42,348.59 L 857.41,336.42 L 854.00,324.34 L 850.20,312.36 L 846.00,300.50 L 841.41,288.75 L 836.43,277.15 L 831.07,265.69 L 825.33,254.39 L 819.23,243.26 L 812.75,232.31 L 805.93,221.55 L 798.75,210.99 L 791.22,200.65 L 783.36,190.53 L 775.17,180.64 L 766.66,170.99 L 757.84,161.60 L 748.71,152.47 L 739.29,143.60 L 729.58,135.02 L 719.60,126.72 L 709.35,118.72 L 698.85,111.02 L 688.09,103.63 L 677.11,96.57 L 665.90,89.82 L 654.48,83.41 L 642.85,77.34 L 631.04,71.61 L 619.04,66.23 L 606.88,61.21 L 594.57,56.55 L 582.11,52.25 L 569.52,48.32 L 556.82,44.76 L 544.00,41.59 L 531.10,38.79 L 518.11,36.37 L 505.06,34.34 L 491.96,32.69 L 478.81,31.43 L 465.63,30.56 L 452.44,30.09 L 439.25,30.00 L 426.07,30.30 L 412.91,31.00 L 399.78,32.09 L 386.71,33.56 L 373.70,35.42 L 360.76,37.67 L 347.92,40.30 L 335.17,43.31 L 322.54,46.70 L 310.03,50.47 L 297.66,54.60 L 285.44,59.10 L 273.38,63.97 L 261.50,69.19 L 249.80,74.77 L 238.30,80.69 L 227.01,86.95 L 215.94,93.55 L 205.11,100.47 L 194.51,107.72 L 184.16,115.28 L 174.08,123.15 L 164.27,131.31 L 154.74,139.77 L 145.50,148.51 L 136.57,157.53 L 127.94,166.81 L 119.63,176.35 L 111.65,186.13 L 104.00,196.15 L 96.69,206.40 L 89.73,216.86 L 83.13,227.53 L 76.89,238.40 L 71.01,249.45 L 65.51,260.68 L 60.39,272.07 L 55.66,283.61 L 51.31,295.29 L 47.36,307.10 L 43.80,319.03 L 40.65,331.07 L 37.90,343.20 L 35.55,355.41 L 33.62,367.69 L 32.09,380.03 L 30.98,392.41 L 30.28,404.83 L 30.00,417.27 L 30.13,429.72 L 30.68,442.16 L 31.63,454.59 L 33.01,466.99 L 34.79,479.36 L 36.98,491.66 L 39.58,503.91 L 42.59,516.07 L 46.00,528.15 L 49.80,540.13 L 54.00,552.00 L 58.59,563.74 L 63.57,575.34 L 68.93,586.80 L 74.67,598.10 L 80.77,609.23 L 87.25,620.18 L 94.07,630.94 L 101.25,641.50 L 108.78,651.84 L 116.64,661.96 L 124.83,671.85 L 133.34,681.50 L 142.16,690.89 L 151.29,700.03 L 160.71,708.89 L 170.42,717.48 L 180.40,725.77 L 190.65,733.77 L 201.15,741.47 L 211.91,748.86 L 222.89,755.93 L 234.10,762.67 L 245.52,769.08 L 257.15,775.15 L 268.96,780.88 L 280.96,786.26 L 293.12,791.28 L 305.43,795.95 L 317.89,800.24 L 330.48,804.17 L 343.18,807.73 L 356.00,810.91 L 368.90,813.71 L 381.89,816.13 L 394.94,818.16 L 408.04,819.80 L 421.19,821.06 L 434.37,821.93 L 447.56,822.41 L 460.75,822.49 L 473.93,822.19 L 487.09,821.49 L 500.22,820.41 L 513.29,818.93 L 526.30,817.07 L 539.24,814.82 L 552.08,812.19 L 564.83,809.18 L 577.46,805.79 L 589.97,802.03 L 602.34,797.89 L 614.56,793.39 L 626.62,788.52 L 638.50,783.30 L 650.20,777.73 L 661.70,771.81 L 672.99,765.54 L 684.06,758.95 L 694.89,752.02 L 705.49,744.78 L 715.84,737.21 L 725.92,729.35 L 735.73,721.18 L 745.26,712.72 L 754.50,703.98 L 763.43,694.96 L 772.06,685.68 L 780.37,676.15 L 788.35,666.36 L 796.00,656.34 L 803.31,646.10 L 810.27,635.63 L 816.87,624.96 L 823.11,614.10 L 828.99,603.04 L 834.49,591.82 L 839.61,580.43 L 844.34,568.89 L 848.69,557.20 L 852.64,545.39 L 856.20,533.46 L 859.35,521.42 L 862.10,509.30 L 864.45,497.08 L 866.38,484.80 L 867.91,472.46 L 869.02,460.08 L 869.72,447.66 L 870.00,435.22 Z" stroke="#000000" stroke-width="2.5" fill="none"/>
</svg>
