<?xml version="1.0" encoding="UTF-8"?>
<svg xmlns="http://www.w3.org/2000/svg" width="900" height="900" viewBox="0 0 900 900">
<rect x="0" y="0" width="100%" height="100%" fill="white"/>
<text x="30" y="30" font-family="monospace" font-size="14">dent (n=200, seed=0) | decomposition diagonals=1</text>
<g stroke="#1f77b4" stroke-width="1" fill="none" opacity="0.60">
<line x1="446.27" y1="288.81" x2="51.31" y2="295.20"/>
</g>
<path d="M 869.87,422.69 L 869.32,410.24 L 868.37,397.81 L 866.99,385.41 L 865.21,373.05 L 863.02,360.74 L 860.42,348.50 L 857.41,336.33 L 854.00,324.25 L 850.20,312.28 L 846.00,300.41 L 841.41,288.67 L 836.43,277.06 L 831.07,265.60 L 825.33,254.30 L 819.23,243.17 L 812.75,232.22 L 805.93,221.46 L 798.75,210.91 L 791.22,200.56 L 783.36,190.44 L 775.17,180.55 L 766.66,170.91 L 757.84,161.51 L 748.71,152.38 L 739.29,143.52 L 729.58,134.93 L 719.60,126.63 L 709.35,118.63 L 698.85,110.94 L 688.09,103.55 L 677.11,96.48 L 665.90,89.74 L 654.48,83.33 L 642.85,77.25 L 631.04,71.53 L 619.04,66.15 L 606.88,61.12 L 594.57,56.46 L 582.11,52.16 L 569.52,48.23 L 556.82,44.68 L 544.00,41.50 L 531.10,38.70 L 518.11,36.28 L 505.06,34.25 L 491.96,32.60 L 478.81,31.35 L 465.63,30.48 L 452.44,30.00 L 446.27,288.81 L 426.07,30.22 L 412.91,30.91 L 399.78,32.00 L 386.71,33.47 L 373.70,35.34 L 360.76,37.58 L 347.92,40.21 L 335.17,43.23 L 322.54,46.62 L 310.03,50.38 L 297.66,54.52 L 285.44,59.02 L 273.38,63.88 L 261.50,69.10 L 249.80,74.68 L 238.30,80.60 L 227.01,86.86 L 215.94,93.46 L 205.11,100.38 L 194.51,107.63 L 184.16,115.19 L 174.08,123.06 L 164.27,131.23 L 154.74,139.69 L 145.50,148.43 L 136.57,157.44 L 127.94,166.72 L 119.63,176.26 L 111.65,186.04 L 104.00,196.06 L 96.69,206.31 L 89.73,216.77 L 83.13,227.44 L 76.89,238.31 L 71.01,249.36 L 65.51,260.59 L 60.39,271.98 L 55.66,283.52 L 51.31,295.20 L 47.36,307.02 L 43.80,318.95 L 40.65,330.98 L 37.90,343.11 L 35.55,355.32 L 33.62,367.60 L 32.09,379.94 L 30.98,392.33 L 30.28,404.75 L 30.00,417.19 L 30.13,429.63 L 30.68,442.08 L 31.63,454.51 L 33.01,466.91 L 34.79,479.27 L 36.98,491.58 L 39.58,503.82 L 42.59,515.99 L 46.00,528.07 L 49.80,540.04 L 54.00,551.91 L 58.59,563.65 L 63.57,575.26 L 68.93,586.72 L 74.67,598.02 L 80.77,609.15 L 87.25,620.10 L 94.07,630.86 L 101.25,641.41 L 108.78,651.76 L 116.64,661.88 L 124.83,671.77 L 133.34,681.41 L 142.16,690.81 L 151.29,699.94 L 160.71,708.80 L 170.42,717.39 L 180.40,725.69 L 190.65,733.69 L 201.15,741.39 L 211.91,748.77 L 222.89,755.84 L 234.10,762.58 L 245.52,768.99 L 257.15,775.07 L 268.96,780.80 L 280.96,786.17 L 293.12,791.20 L 305.43,795.86 L 317.89,800.16 L 330.48,804.09 L 343.18,807.64 L 356.00,810.82 L 368.90,813.62 L 381.89,816.04 L 394.94,818.07 L 408.04,819.72 L 421.19,820.98 L 434.37,821.84 L 447.56,822.32 L 460.75,822.41 L 473.93,822.10 L 487.09,821.41 L 500.22,820.32 L 513.29,818.85 L 526.30,816.99 L 539.24,814.74 L 552.08,812.11 L 564.83,809.09 L 577.46,805.70 L 589.97,801.94 L 602.34,797.80 L 614.56,793.30 L 626.62,788.44 L 638.50,783.22 L 650.20,777.64 L 661.70,771.72 L 672.99,765.46 L 684.06,758.86 L 694.89,751.94 L 705.49,744.69 L 715.84,737.13 L 725.92,729.26 L 735.73,721.09 L 745.26,712.63 L 754.50,703.89 L 763.43,694.88 L 772.06,685.60 L 780.37,676.06 L 788.35,666.28 L 796.00,656.26 L 803.31,646.01 L 810.27,635.55 L 816.87,624.88 L 823.11,614.01 L 828.99,602.96 L 834.49,591.73 L 839.61,580.34 L 844.34,568.80 L 848.69,557.12 L 852.64,545.30 L 856.20,533.37 L 859.35,521.34 L 862.10,509.21 L 864.45,497.00 L 866.38,484.72 L 867.91,472.38 L 869.02,459.99 L 869.72,447.57 L 870.00,435.14 Z" stroke="#000000" stroke-width="2.5" fill="none"/>
</svg>
