<?xml version="1.0" encoding="UTF-8"?>
<svg xmlns="http://www.w3.org/2000/svg" width="900" height="900" viewBox="0 0 900 900">
<rect x="0" y="0" width="100%" height="100%" fill="white"/>
<text x="30" y="30" font-family="monospace" font-size="14">convex (n=200, seed=0)</text>
<g stroke="#1f77b4" stroke-width="1" fill="none" opacity="0.60">
<line x1="869.87" y1="422.78" x2="868.37" y2="397.90"/>
<line x1="869.87" y1="422.78" x2="867.00" y2="385.50"/>
<line x1="869.87" y1="422.78" x2="865.21" y2="373.14"/>
<line x1="869.87" y1="422.78" x2="863.02" y2="360.83"/>
<line x1="869.87" y1="422.78" x2="860.42" y2="348.59"/>
<line x1="869.87" y1="422.78" x2="857.41" y2="336.42"/>
<line x1="869.87" y1="422.78" x2="854.01" y2="324.34"/>
<line x1="869.87" y1="422.78" x2="850.20" y2="312.36"/>
<line x1="869.87" y1="422.78" x2="846.00" y2="300.50"/>
<line x1="869.87" y1="422.78" x2="841.41" y2="288.76"/>
<line x1="869.87" y1="422.78" x2="836.43" y2="277.15"/>
<line x1="869.87" y1="422.78" x2="831.07" y2="265.69"/>
<line x1="869.87" y1="422.78" x2="825.33" y2="254.39"/>
<line x1="869.87" y1="422.78" x2="819.23" y2="243.26"/>
<line x1="869.87" y1="422.78" x2="812.76" y2="232.31"/>
<line x1="869.87" y1="422.78" x2="805.93" y2="221.55"/>
<line x1="869.87" y1="422.78" x2="798.75" y2="211.00"/>
<line x1="869.87" y1="422.78" x2="791.22" y2="200.65"/>
<line x1="869.87" y1="422.78" x2="783.36" y2="190.53"/>
<line x1="869.87" y1="422.78" x2="775.17" y2="180.64"/>
<line x1="869.87" y1="422.78" x2="766.66" y2="170.99"/>
<line x1="869.87" y1="422.78" x2="757.84" y2="161.60"/>
<line x1="869.87" y1="422.78" x2="748.71" y2="152.47"/>
<line x1="869.87" y1="422.78" x2="739.29" y2="143.60"/>
<line x1="869.87" y1="422.78" x2="729.58" y2="135.02"/>
<line x1="869.87" y1="422.78" x2="719.60" y2="126.72"/>
<line x1="869.87" y1="422.78" x2="709.35" y2="118.72"/>
<line x1="869.87" y1="422.78" x2="698.85" y2="111.02"/>
<line x1="869.87" y1="422.78" x2="688.10" y2="103.63"/>
<line x1="869.87" y1="422.78" x2="677.11" y2="96.57"/>
<line x1="869.87" y1="422.78" x2="665.90" y2="89.82"/>
<line x1="869.87" y1="422.78" x2="654.48" y2="83.41"/>
<line x1="869.87" y1="422.78" x2="642.85" y2="77.34"/>
<line x1="869.87" y1="422.78" x2="631.04" y2="71.61"/>
<line x1="869.87" y1="422.78" x2="619.04" y2="66.23"/>
<line x1="869.87" y1="422.78" x2="606.88" y2="61.21"/>
<line x1="869.87" y1="422.78" x2="594.57" y2="56.55"/>
<line x1="869.87" y1="422.78" x2="582.11" y2="52.25"/>
<line x1="869.87" y1="422.78" x2="569.52" y2="48.32"/>
<line x1="869.87" y1="422.78" x2="556.82" y2="44.76"/>
<line x1="869.87" y1="422.78" x2="544.00" y2="41.59"/>
<line x1="869.87" y1="422.78" x2="531.10" y2="38.78"/>
<line x1="869.87" y1="422.78" x2="518.11" y2="36.37"/>
<line x1="869.87" y1="422.78" x2="505.06" y2="34.33"/>
<line x1="869.87" y1="422.78" x2="491.96" y2="32.69"/>
<line x1="869.87" y1="422.78" x2="478.81" y2="31.43"/>
<line x1="869.87" y1="422.78" x2="465.63" y2="30.56"/>
<line x1="869.87" y1="422.78" x2="452.44" y2="30.09"/>
<line x1="869.87" y1="422.78" x2="439.25" y2="30.00"/>
<line x1="869.87" y1="422.78" x2="426.07" y2="30.30"/>
<line x1="869.87" y1="422.78" x2="412.91" y2="31.00"/>
<line x1="869.87" y1="422.78" x2="399.78" y2="32.09"/>
<line x1="869.87" y1="422.78" x2="386.71" y2="33.56"/>
<line x1="869.87" y1="422.78" x2="373.70" y2="35.42"/>
<line x1="869.87" y1="422.78" x2="360.76" y2="37.67"/>
<line x1="869.87" y1="422.78" x2="347.92" y2="40.30"/>
<line x1="869.87" y1="422.78" x2="335.17" y2="43.31"/>
<line x1="869.87" y1="422.78" x2="322.53" y2="46.70"/>
<line x1="869.87" y1="422.78" x2="310.03" y2="50.47"/>
<line x1="869.87" y1="422.78" x2="297.66" y2="54.60"/>
<line x1="869.87" y1="422.78" x2="285.44" y2="59.10"/>
<line x1="869.87" y1="422.78" x2="273.38" y2="63.97"/>
<line x1="869.87" y1="422.78" x2="261.50" y2="69.19"/>
<line x1="869.87" y1="422.78" x2="249.80" y2="74.77"/>
<line x1="869.87" y1="422.78" x2="238.30" y2="80.69"/>
<line x1="869.87" y1="422.78" x2="227.01" y2="86.95"/>
<line x1="869.87" y1="422.78" x2="215.94" y2="93.55"/>
<line x1="869.87" y1="422.78" x2="205.10" y2="100.47"/>
<line x1="869.87" y1="422.78" x2="194.51" y2="107.72"/>
<line x1="869.87" y1="422.78" x2="184.16" y2="115.28"/>
<line x1="869.87" y1="422.78" x2="174.08" y2="123.15"/>
<line x1="869.87" y1="422.78" x2="164.27" y2="131.32"/>
<line x1="869.87" y1="422.78" x2="154.74" y2="139.77"/>
<line x1="869.87" y1="422.78" x2="145.50" y2="148.51"/>
<line x1="869.87" y1="422.78" x2="136.57" y2="157.53"/>
<line x1="869.87" y1="422.78" x2="127.94" y2="166.81"/>
<line x1="869.87" y1="422.78" x2="119.63" y2="176.35"/>
<line x1="869.87" y1="422.78" x2="111.65" y2="186.13"/>
<line x1="869.87" y1="422.78" x2="104.00" y2="196.15"/>
<line x1="869.87" y1="422.78" x2="96.69" y2="206.40"/>
<line x1="869.87" y1="422.78" x2="89.73" y2="216.86"/>
<line x1="869.87" y1="422.78" x2="83.13" y2="227.53"/>
<line x1="869.87" y1="422.78" x2="76.88" y2="238.40"/>
<line x1="869.87" y1="422.78" x2="71.01" y2="249.45"/>
<line x1="869.87" y1="422.78" x2="65.51" y2="260.68"/>
<line x1="869.87" y1="422.78" x2="60.39" y2="272.07"/>
<line x1="869.87" y1="422.78" x2="55.66" y2="283.61"/>
<line x1="869.87" y1="422.78" x2="51.31" y2="295.29"/>
<line x1="869.87" y1="422.78" x2="47.36" y2="307.10"/>
<line x1="869.87" y1="422.78" x2="43.80" y2="319.03"/>
<line x1="869.87" y1="422.78" x2="40.65" y2="331.07"/>
<line x1="869.87" y1="422.78" x2="37.89" y2="343.20"/>
<line x1="869.87" y1="422.78" x2="35.55" y2="355.41"/>
<line x1="869.87" y1="422.78" x2="33.62" y2="367.69"/>
<line x1="869.87" y1="422.78" x2="32.09" y2="380.03"/>
<line x1="869.87" y1="422.78" x2="30.98" y2="392.42"/>
<line x1="869.87" y1="422.78" x2="30.28" y2="404.83"/>
<line x1="869.87" y1="422.78" x2="30.00" y2="417.27"/>
<line x1="869.87" y1="422.78" x2="30.13" y2="429.72"/>
<line x1="869.87" y1="422.78" x2="30.67" y2="442.17"/>
<line x1="869.87" y1="422.78" x2="31.63" y2="454.60"/>
<line x1="869.87" y1="422.78" x2="33.00" y2="467.00"/>
<line x1="869.87" y1="422.78" x2="34.79" y2="479.36"/>
<line x1="869.87" y1="422.78" x2="36.98" y2="491.67"/>
<line x1="869.87" y1="422.78" x2="39.58" y2="503.91"/>
<line x1="869.87" y1="422.78" x2="42.59" y2="516.08"/>
<line x1="869.87" y1="422.78" x2="45.99" y2="528.16"/>
<line x1="869.87" y1="422.78" x2="49.80" y2="540.13"/>
<line x1="869.87" y1="422.78" x2="54.00" y2="552.00"/>
<line x1="869.87" y1="422.78" x2="58.59" y2="563.74"/>
<line x1="869.87" y1="422.78" x2="63.57" y2="575.35"/>
<line x1="869.87" y1="422.78" x2="68.93" y2="586.81"/>
<line x1="869.87" y1="422.78" x2="74.67" y2="598.11"/>
<line x1="869.87" y1="422.78" x2="80.77" y2="609.24"/>
<line x1="869.87" y1="422.78" x2="87.24" y2="620.19"/>
<line x1="869.87" y1="422.78" x2="94.07" y2="630.95"/>
<line x1="869.87" y1="422.78" x2="101.25" y2="641.50"/>
<line x1="869.87" y1="422.78" x2="108.78" y2="651.85"/>
<line x1="869.87" y1="422.78" x2="116.64" y2="661.97"/>
<line x1="869.87" y1="422.78" x2="124.83" y2="671.86"/>
<line x1="869.87" y1="422.78" x2="133.34" y2="681.50"/>
<line x1="869.87" y1="422.78" x2="142.16" y2="690.90"/>
<line x1="869.87" y1="422.78" x2="151.29" y2="700.03"/>
<line x1="869.87" y1="422.78" x2="160.71" y2="708.89"/>
<line x1="869.87" y1="422.78" x2="170.42" y2="717.48"/>
<line x1="869.87" y1="422.78" x2="180.40" y2="725.78"/>
<line x1="869.87" y1="422.78" x2="190.65" y2="733.78"/>
<line x1="869.87" y1="422.78" x2="201.15" y2="741.47"/>
<line x1="869.87" y1="422.78" x2="211.90" y2="748.86"/>
<line x1="869.87" y1="422.78" x2="222.89" y2="755.93"/>
<line x1="869.87" y1="422.78" x2="234.10" y2="762.67"/>
<line x1="869.87" y1="422.78" x2="245.52" y2="769.08"/>
<line x1="869.87" y1="422.78" x2="257.15" y2="775.16"/>
<line x1="869.87" y1="422.78" x2="268.96" y2="780.89"/>
<line x1="869.87" y1="422.78" x2="280.96" y2="786.26"/>
<line x1="869.87" y1="422.78" x2="293.12" y2="791.29"/>
<line x1="869.87" y1="422.78" x2="305.43" y2="795.95"/>
<line x1="869.87" y1="422.78" x2="317.89" y2="800.25"/>
<line x1="869.87" y1="422.78" x2="330.48" y2="804.18"/>
<line x1="869.87" y1="422.78" x2="343.18" y2="807.73"/>
<line x1="869.87" y1="422.78" x2="356.00" y2="810.91"/>
<line x1="869.87" y1="422.78" x2="368.90" y2="813.71"/>
<line x1="869.87" y1="422.78" x2="381.89" y2="816.13"/>
<line x1="869.87" y1="422.78" x2="394.94" y2="818.16"/>
<line x1="869.87" y1="422.78" x2="408.04" y2="819.81"/>
<line x1="869.87" y1="422.78" x2="421.19" y2="821.07"/>
<line x1="869.87" y1="422.78" x2="434.37" y2="821.93"/>
<line x1="869.87" y1="422.78" x2="447.56" y2="822.41"/>
<line x1="869.87" y1="422.78" x2="460.75" y2="822.50"/>
<line x1="869.87" y1="422.78" x2="473.93" y2="822.19"/>
<line x1="869.87" y1="422.78" x2="487.09" y2="821.50"/>
<line x1="869.87" y1="422.78" x2="500.22" y2="820.41"/>
<line x1="869.87" y1="422.78" x2="513.29" y2="818.94"/>
<line x1="869.87" y1="422.78" x2="526.30" y2="817.07"/>
<line x1="869.87" y1="422.78" x2="539.24" y2="814.83"/>
<line x1="869.87" y1="422.78" x2="552.08" y2="812.20"/>
<line x1="869.87" y1="422.78" x2="564.83" y2="809.18"/>
<line x1="869.87" y1="422.78" x2="577.47" y2="805.79"/>
<line x1="869.87" y1="422.78" x2="589.97" y2="802.03"/>
<line x1="869.87" y1="422.78" x2="602.34" y2="797.89"/>
<line x1="869.87" y1="422.78" x2="614.56" y2="793.39"/>
<line x1="869.87" y1="422.78" x2="626.62" y2="788.53"/>
<line x1="869.87" y1="422.78" x2="638.50" y2="783.31"/>
<line x1="869.87" y1="422.78" x2="650.20" y2="777.73"/>
<line x1="869.87" y1="422.78" x2="661.70" y2="771.81"/>
<line x1="869.87" y1="422.78" x2="672.99" y2="765.55"/>
<line x1="869.87" y1="422.78" x2="684.06" y2="758.95"/>
<line x1="869.87" y1="422.78" x2="694.90" y2="752.03"/>
<line x1="869.87" y1="422.78" x2="705.49" y2="744.78"/>
<line x1="869.87" y1="422.78" x2="715.84" y2="737.22"/>
<line x1="869.87" y1="422.78" x2="725.92" y2="729.35"/>
<line x1="869.87" y1="422.78" x2="735.73" y2="721.18"/>
<line x1="869.87" y1="422.78" x2="745.26" y2="712.72"/>
<line x1="869.87" y1="422.78" x2="754.50" y2="703.98"/>
<line x1="869.87" y1="422.78" x2="763.43" y2="694.97"/>
<line x1="869.87" y1="422.78" x2="772.06" y2="685.69"/>
<line x1="869.87" y1="422.78" x2="780.37" y2="676.15"/>
<line x1="869.87" y1="422.78" x2="788.35" y2="666.37"/>
<line x1="869.87" y1="422.78" x2="796.00" y2="656.35"/>
<line x1="869.87" y1="422.78" x2="803.31" y2="646.10"/>
<line x1="869.87" y1="422.78" x2="810.27" y2="635.64"/>
<line x1="869.87" y1="422.78" x2="816.87" y2="624.97"/>
<line x1="869.87" y1="422.78" x2="823.12" y2="614.10"/>
<line x1="869.87" y1="422.78" x2="828.99" y2="603.05"/>
<line x1="869.87" y1="422.78" x2="834.49" y2="591.82"/>
<line x1="869.87" y1="422.78" x2="839.61" y2="580.43"/>
<line x1="869.87" y1="422.78" x2="844.34" y2="568.89"/>
<line x1="869.87" y1="422.78" x2="848.69" y2="557.20"/>
<line x1="869.87" y1="422.78" x2="852.64" y2="545.39"/>
<line x1="869.87" y1="422.78" x2="856.20" y2="533.46"/>
<line x1="869.87" y1="422.78" x2="859.35" y2="521.43"/>
<line x1="869.87" y1="422.78" x2="862.11" y2="509.30"/>
<line x1="869.87" y1="422.78" x2="864.45" y2="497.09"/>
<line x1="869.87" y1="422.78" x2="866.38" y2="484.80"/>
<line x1="869.87" y1="422.78" x2="867.91" y2="472.47"/>
<line x1="869.87" y1="422.78" x2="869.02" y2="460.08"/>
<line x1="869.87" y1="422.78" x2="869.72" y2="447.66"/>
</g>
<path d="M 869.87,422.78 L 869.33,410.33 L 868.37,397.90 L 867.00,385.50 L 865.21,373.14 L 863.02,360.83 L 860.42,348.59 L 857.41,336.42 L 854.01,324.34 L 850.20,312.36 L 846.00,300.50 L 841.41,288.76 L 836.43,277.15 L 831.07,265.69 L 825.33,254.39 L 819.23,243.26 L 812.76,232.31 L 805.93,221.55 L 798.75,211.00 L 791.22,200.65 L 783.36,190.53 L 775.17,180.64 L 766.66,170.99 L 757.84,161.60 L 748.71,152.47 L 739.29,143.60 L 729.58,135.02 L 719.60,126.72 L 709.35,118.72 L 698.85,111.02 L 688.10,103.63 L 677.11,96.57 L 665.90,89.82 L 654.48,83.41 L 642.85,77.34 L 631.04,71.61 L 619.04,66.23 L 606.88,61.21 L 594.57,56.55 L 582.11,52.25 L 569.52,48.32 L 556.82,44.76 L 544.00,41.59 L 531.10,38.78 L 518.11,36.37 L 505.06,34.33 L 491.96,32.69 L 478.81,31.43 L 465.63,30.56 L 452.44,30.09 L 439.25,30.00 L 426.07,30.30 L 412.91,31.00 L 399.78,32.09 L 386.71,33.56 L 373.70,35.42 L 360.76,37.67 L 347.92,40.30 L 335.17,43.31 L 322.53,46.70 L 310.03,50.47 L 297.66,54.60 L 285.44,59.10 L 273.38,63.97 L 261.50,69.19 L 249.80,74.77 L 238.30,80.69 L 227.01,86.95 L 215.94,93.55 L 205.10,100.47 L 194.51,107.72 L 184.16,115.28 L 174.08,123.15 L 164.27,131.32 L 154.74,139.77 L 145.50,148.51 L 136.57,157.53 L 127.94,166.81 L 119.63,176.35 L 111.65,186.13 L 104.00,196.15 L 96.69,206.40 L 89.73,216.86 L 83.13,227.53 L 76.88,238.40 L 71.01,249.45 L 65.51,260.68 L 60.39,272.07 L 55.66,283.61 L 51.31,295.29 L 47.36,307.10 L 43.80,319.03 L 40.65,331.07 L 37.89,343.20 L 35.55,355.41 L 33.62,367.69 L 32.09,380.03 L 30.98,392.42 L 30.28,404.83 L 30.00,417.27 L 30.13,429.72 L 30.67,442.17 L 31.63,454.60 L 33.00,467.00 L 34.79,479.36 L 36.98,491.67 L 39.58,503.91 L 42.59,516.08 L 45.99,528.16 L 49.80,540.13 L 54.00,552.00 L 58.59,563.74 L 63.57,575.35 L 68.93,586.81 L 74.67,598.11 L 80.77,609.24 L 87.24,620.19 L 94.07,630.95 L 101.25,641.50 L 108.78,651.85 L 116.64,661.97 L 124.83,671.86 L 133.34,681.50 L 142.16,690.90 L 151.29,700.03 L 160.71,708.89 L 170.42,717.48 L 180.40,725.78 L 190.65,733.78 L 201.15,741.47 L 211.90,748.86 L 222.89,755.93 L 234.10,762.67 L 245.52,769.08 L 257.15,775.16 L 268.96,780.89 L 280.96,786.26 L 293.12,791.29 L 305.43,795.95 L 317.89,800.25 L 330.48,804.18 L 343.18,807.73 L 356.00,810.91 L 368.90,813.71 L 381.89,816.13 L 394.94,818.16 L 408.04,819.81 L 421.19,821.07 L 434.37,821.93 L 447.56,822.41 L 460.75,822.50 L 473.93,822.19 L 487.09,821.50 L 500.22,820.41 L 513.29,818.94 L 526.30,817.07 L 539.24,814.83 L 552.08,812.20 L 564.83,809.18 L 577.47,805.79 L 589.97,802.03 L 602.34,797.89 L 614.56,793.39 L 626.62,788.53 L 638.50,783.31 L 650.20,777.73 L 661.70,771.81 L 672.99,765.55 L 684.06,758.95 L 694.90,752.03 L 705.49,744.78 L 715.84,737.22 L 725.92,729.35 L 735.73,721.18 L 745.26,712.72 L 754.50,703.98 L 763.43,694.97 L 772.06,685.69 L 780.37,676.15 L 788.35,666.37 L 796.00,656.35 L 803.31,646.10 L 810.27,635.64 L 816.87,624.97 L 823.12,614.10 L 828.99,603.05 L 834.49,591.82 L 839.61,580.43 L 844.34,568.89 L 848.69,557.20 L 852.64,545.39 L 856.20,533.46 L 859.35,521.43 L 862.11,509.30 L 864.45,497.09 L 866.38,484.80 L 867.91,472.47 L 869.02,460.08 L 869.72,447.66 L 870.00,435.22 Z" stroke="#000000" stroke-width="2.5" fill="none"/>
</svg>
