<?xml version="1.0" encoding="UTF-8"?>
<svg xmlns="http://www.w3.org/2000/svg" width="900" height="900" viewBox="0 0 900 900">
<rect x="0" y="0" width="100%" height="100%" fill="white"/>
<text x="30" y="30" font-family="monospace" font-size="14">random (n=200, seed=0)</text>
<g stroke="#1f77b4" stroke-width="1" fill="none" opacity="0.60">
<line x1="704.03" y1="402.39" x2="244.02" y2="393.17"/>
<line x1="704.03" y1="402.39" x2="272.00" y2="408.08"/>
<line x1="704.03" y1="402.39" x2="269.10" y2="421.13"/>
<line x1="704.03" y1="402.39" x2="30.00" y2="452.72"/>
<line x1="656.70" y1="396.29" x2="759.33" y2="371.47"/>
<line x1="656.70" y1="396.29" x2="244.02" y2="393.17"/>
<line x1="759.33" y1="371.47" x2="679.73" y2="361.25"/>
<line x1="759.33" y1="371.47" x2="227.42" y2="380.45"/>
<line x1="759.33" y1="371.47" x2="244.02" y2="393.17"/>
<line x1="771.12" y1="363.35" x2="832.90" y2="340.47"/>
<line x1="771.12" y1="363.35" x2="805.70" y2="344.12"/>
<line x1="771.12" y1="363.35" x2="679.73" y2="361.25"/>
<line x1="805.70" y1="344.12" x2="679.73" y2="361.25"/>
<line x1="679.73" y1="361.25" x2="688.85" y2="344.18"/>
<line x1="679.73" y1="361.25" x2="183.26" y2="358.47"/>
<line x1="679.73" y1="361.25" x2="227.42" y2="380.45"/>
<line x1="688.85" y1="344.18" x2="746.12" y2="318.48"/>
<line x1="688.85" y1="344.18" x2="189.10" y2="318.76"/>
<line x1="688.85" y1="344.18" x2="151.10" y2="348.49"/>
<line x1="688.85" y1="344.18" x2="183.26" y2="358.47"/>
<line x1="726.00" y1="328.89" x2="746.12" y2="318.48"/>
<line x1="746.12" y1="318.48" x2="751.28" y2="304.14"/>
<line x1="746.12" y1="318.48" x2="709.03" y2="316.45"/>
<line x1="746.12" y1="318.48" x2="227.44" y2="317.33"/>
<line x1="746.12" y1="318.48" x2="189.10" y2="318.76"/>
<line x1="709.03" y1="316.45" x2="748.48" y2="275.29"/>
<line x1="709.03" y1="316.45" x2="674.24" y2="297.80"/>
<line x1="709.03" y1="316.45" x2="590.63" y2="308.47"/>
<line x1="709.03" y1="316.45" x2="227.44" y2="317.33"/>
<line x1="674.24" y1="297.80" x2="590.63" y2="308.47"/>
<line x1="665.44" y1="252.62" x2="590.63" y2="308.47"/>
<line x1="708.43" y1="206.24" x2="590.63" y2="308.47"/>
<line x1="590.63" y1="308.47" x2="599.37" y2="286.55"/>
<line x1="590.63" y1="308.47" x2="554.83" y2="292.32"/>
<line x1="590.63" y1="308.47" x2="265.04" y2="301.79"/>
<line x1="590.63" y1="308.47" x2="227.44" y2="317.33"/>
<line x1="592.24" y1="305.36" x2="628.30" y2="266.66"/>
<line x1="592.24" y1="305.36" x2="599.37" y2="286.55"/>
<line x1="599.37" y1="286.55" x2="674.68" y2="197.56"/>
<line x1="599.37" y1="286.55" x2="596.40" y2="278.82"/>
<line x1="599.37" y1="286.55" x2="554.83" y2="292.32"/>
<line x1="596.40" y1="278.82" x2="630.28" y2="214.46"/>
<line x1="596.40" y1="278.82" x2="554.83" y2="292.32"/>
<line x1="554.83" y1="292.32" x2="304.13" y2="283.71"/>
<line x1="554.83" y1="292.32" x2="285.84" y2="289.21"/>
<line x1="554.83" y1="292.32" x2="265.04" y2="301.79"/>
<line x1="552.74" y1="288.20" x2="315.85" y2="283.70"/>
<line x1="552.74" y1="288.20" x2="304.13" y2="283.71"/>
<line x1="570.17" y1="259.33" x2="635.99" y2="148.65"/>
<line x1="570.17" y1="259.33" x2="580.06" y2="215.05"/>
<line x1="570.17" y1="259.33" x2="471.90" y2="242.33"/>
<line x1="570.17" y1="259.33" x2="315.85" y2="283.70"/>
<line x1="635.99" y1="148.65" x2="629.39" y2="143.29"/>
<line x1="635.99" y1="148.65" x2="580.06" y2="215.05"/>
<line x1="629.39" y1="143.29" x2="580.06" y2="215.05"/>
<line x1="580.06" y1="215.05" x2="575.83" y2="177.78"/>
<line x1="580.06" y1="215.05" x2="559.07" y2="193.44"/>
<line x1="580.06" y1="215.05" x2="504.59" y2="212.89"/>
<line x1="580.06" y1="215.05" x2="471.90" y2="242.33"/>
<line x1="575.83" y1="177.78" x2="559.07" y2="193.44"/>
<line x1="559.07" y1="193.44" x2="504.59" y2="212.89"/>
<line x1="504.59" y1="212.89" x2="471.90" y2="242.33"/>
<line x1="517.50" y1="153.07" x2="471.90" y2="242.33"/>
<line x1="471.90" y1="242.33" x2="369.94" y2="234.53"/>
<line x1="471.90" y1="242.33" x2="315.85" y2="283.70"/>
<line x1="459.22" y1="240.46" x2="456.06" y2="220.52"/>
<line x1="459.22" y1="240.46" x2="388.96" y2="227.79"/>
<line x1="459.22" y1="240.46" x2="369.94" y2="234.53"/>
<line x1="456.06" y1="220.52" x2="388.96" y2="227.79"/>
<line x1="436.22" y1="145.75" x2="428.53" y2="103.22"/>
<line x1="436.22" y1="145.75" x2="394.77" y2="202.61"/>
<line x1="436.22" y1="145.75" x2="388.96" y2="227.79"/>
<line x1="428.53" y1="103.22" x2="376.70" y2="114.19"/>
<line x1="428.53" y1="103.22" x2="394.77" y2="202.61"/>
<line x1="388.96" y1="227.79" x2="369.94" y2="234.53"/>
<line x1="369.94" y1="234.53" x2="228.17" y2="148.52"/>
<line x1="369.94" y1="234.53" x2="251.30" y2="191.73"/>
<line x1="369.94" y1="234.53" x2="315.85" y2="283.70"/>
<line x1="365.59" y1="230.26" x2="300.45" y2="155.63"/>
<line x1="365.59" y1="230.26" x2="228.17" y2="148.52"/>
<line x1="315.85" y1="283.70" x2="272.11" y2="236.70"/>
<line x1="315.85" y1="283.70" x2="304.13" y2="283.71"/>
<line x1="304.13" y1="283.71" x2="286.57" y2="278.29"/>
<line x1="304.13" y1="283.71" x2="285.84" y2="289.21"/>
<line x1="286.57" y1="278.29" x2="285.84" y2="289.21"/>
<line x1="285.84" y1="289.21" x2="265.04" y2="301.79"/>
<line x1="265.04" y1="301.79" x2="151.17" y2="245.26"/>
<line x1="265.04" y1="301.79" x2="227.44" y2="317.33"/>
<line x1="151.17" y1="245.26" x2="227.44" y2="317.33"/>
<line x1="118.93" y1="233.81" x2="227.44" y2="317.33"/>
<line x1="189.10" y1="318.76" x2="116.74" y2="304.62"/>
<line x1="189.10" y1="318.76" x2="151.10" y2="348.49"/>
<line x1="116.74" y1="304.62" x2="151.10" y2="348.49"/>
<line x1="183.26" y1="358.47" x2="227.42" y2="380.45"/>
<line x1="227.42" y1="380.45" x2="244.02" y2="393.17"/>
<line x1="244.02" y1="393.17" x2="170.66" y2="381.05"/>
<line x1="244.02" y1="393.17" x2="272.00" y2="408.08"/>
<line x1="272.00" y1="408.08" x2="156.22" y2="399.09"/>
<line x1="272.00" y1="408.08" x2="269.10" y2="421.13"/>
<line x1="79.28" y1="385.34" x2="156.22" y2="399.09"/>
<line x1="30.00" y1="452.72" x2="796.41" y2="418.73"/>
<line x1="30.00" y1="452.72" x2="839.54" y2="401.65"/>
<line x1="189.98" y1="448.00" x2="265.98" y2="448.58"/>
<line x1="189.98" y1="448.00" x2="641.29" y2="428.49"/>
<line x1="189.98" y1="448.00" x2="725.30" y2="423.07"/>
<line x1="189.98" y1="448.00" x2="796.41" y2="418.73"/>
<line x1="265.98" y1="448.58" x2="651.35" y2="483.10"/>
<line x1="265.98" y1="448.58" x2="641.29" y2="428.49"/>
<line x1="122.05" y1="460.46" x2="651.35" y2="483.10"/>
<line x1="69.75" y1="475.01" x2="651.35" y2="483.10"/>
<line x1="204.83" y1="481.51" x2="260.96" y2="483.31"/>
<line x1="204.83" y1="481.51" x2="651.35" y2="483.10"/>
<line x1="183.56" y1="491.83" x2="260.96" y2="483.31"/>
<line x1="260.96" y1="483.31" x2="279.53" y2="490.71"/>
<line x1="260.96" y1="483.31" x2="651.35" y2="483.10"/>
<line x1="279.53" y1="490.71" x2="268.42" y2="516.01"/>
<line x1="279.53" y1="490.71" x2="621.78" y2="516.87"/>
<line x1="279.53" y1="490.71" x2="651.35" y2="483.10"/>
<line x1="195.38" y1="534.76" x2="268.42" y2="516.01"/>
<line x1="268.42" y1="516.01" x2="589.87" y2="569.71"/>
<line x1="268.42" y1="516.01" x2="596.56" y2="542.56"/>
<line x1="268.42" y1="516.01" x2="608.16" y2="529.20"/>
<line x1="268.42" y1="516.01" x2="621.78" y2="516.87"/>
<line x1="157.92" y1="584.97" x2="322.23" y2="640.74"/>
<line x1="157.92" y1="584.97" x2="354.23" y2="590.87"/>
<line x1="157.92" y1="584.97" x2="589.87" y2="569.71"/>
<line x1="182.26" y1="630.52" x2="175.69" y2="672.13"/>
<line x1="182.26" y1="630.52" x2="199.35" y2="680.68"/>
<line x1="182.26" y1="630.52" x2="228.89" y2="724.00"/>
<line x1="182.26" y1="630.52" x2="322.23" y2="640.74"/>
<line x1="140.68" y1="671.63" x2="175.69" y2="672.13"/>
<line x1="199.35" y1="680.68" x2="228.89" y2="724.00"/>
<line x1="354.23" y1="590.87" x2="302.10" y2="702.64"/>
<line x1="354.23" y1="590.87" x2="262.01" y2="809.25"/>
<line x1="354.23" y1="590.87" x2="359.37" y2="627.49"/>
<line x1="354.23" y1="590.87" x2="403.93" y2="678.92"/>
<line x1="354.23" y1="590.87" x2="418.63" y2="621.47"/>
<line x1="354.23" y1="590.87" x2="525.49" y2="600.71"/>
<line x1="354.23" y1="590.87" x2="589.87" y2="569.71"/>
<line x1="359.37" y1="627.49" x2="392.37" y2="677.47"/>
<line x1="359.37" y1="627.49" x2="403.93" y2="678.92"/>
<line x1="360.90" y1="673.05" x2="358.94" y2="694.08"/>
<line x1="360.90" y1="673.05" x2="358.97" y2="694.98"/>
<line x1="360.90" y1="673.05" x2="368.90" y2="715.89"/>
<line x1="360.90" y1="673.05" x2="379.29" y2="693.10"/>
<line x1="360.90" y1="673.05" x2="392.37" y2="677.47"/>
<line x1="379.29" y1="693.10" x2="392.37" y2="677.47"/>
<line x1="346.19" y1="820.43" x2="392.37" y2="677.47"/>
<line x1="418.63" y1="621.47" x2="412.23" y2="713.46"/>
<line x1="418.63" y1="621.47" x2="427.22" y2="658.76"/>
<line x1="418.63" y1="621.47" x2="430.58" y2="649.45"/>
<line x1="418.63" y1="621.47" x2="530.51" y2="634.74"/>
<line x1="418.63" y1="621.47" x2="525.49" y2="600.71"/>
<line x1="403.61" y1="726.25" x2="412.23" y2="713.46"/>
<line x1="430.58" y1="649.45" x2="462.06" y2="823.68"/>
<line x1="430.58" y1="649.45" x2="496.75" y2="832.49"/>
<line x1="430.58" y1="649.45" x2="493.67" y2="678.78"/>
<line x1="430.58" y1="649.45" x2="520.50" y2="651.14"/>
<line x1="430.58" y1="649.45" x2="530.51" y2="634.74"/>
<line x1="427.46" y1="699.34" x2="446.61" y2="792.13"/>
<line x1="427.46" y1="699.34" x2="462.06" y2="823.68"/>
<line x1="493.67" y1="678.78" x2="540.54" y2="813.39"/>
<line x1="493.67" y1="678.78" x2="552.14" y2="798.37"/>
<line x1="493.67" y1="678.78" x2="520.50" y2="651.14"/>
<line x1="527.71" y1="784.04" x2="540.54" y2="813.39"/>
<line x1="520.50" y1="651.14" x2="530.51" y2="634.74"/>
<line x1="532.30" y1="675.23" x2="530.51" y2="634.74"/>
<line x1="530.51" y1="634.74" x2="525.49" y2="600.71"/>
<line x1="586.63" y1="764.03" x2="568.18" y2="706.03"/>
<line x1="586.63" y1="764.03" x2="525.49" y2="600.71"/>
<line x1="525.49" y1="600.71" x2="544.38" y2="611.36"/>
<line x1="525.49" y1="600.71" x2="557.17" y2="607.28"/>
<line x1="525.49" y1="600.71" x2="589.87" y2="569.71"/>
<line x1="590.32" y1="708.12" x2="544.38" y2="611.36"/>
<line x1="544.38" y1="611.36" x2="594.56" y2="670.53"/>
<line x1="544.38" y1="611.36" x2="557.17" y2="607.28"/>
<line x1="557.17" y1="607.28" x2="614.97" y2="677.11"/>
<line x1="557.17" y1="607.28" x2="589.87" y2="569.71"/>
<line x1="614.97" y1="677.11" x2="589.87" y2="569.71"/>
<line x1="589.87" y1="569.71" x2="644.26" y2="612.35"/>
<line x1="589.87" y1="569.71" x2="721.60" y2="664.38"/>
<line x1="589.87" y1="569.71" x2="596.56" y2="542.56"/>
<line x1="596.56" y1="542.56" x2="614.07" y2="548.97"/>
<line x1="596.56" y1="542.56" x2="608.16" y2="529.20"/>
<line x1="621.78" y1="516.87" x2="651.35" y2="483.10"/>
<line x1="739.75" y1="553.17" x2="651.35" y2="483.10"/>
<line x1="821.94" y1="572.70" x2="651.35" y2="483.10"/>
<line x1="651.35" y1="483.10" x2="768.28" y2="490.77"/>
<line x1="651.35" y1="483.10" x2="673.54" y2="464.44"/>
<line x1="651.35" y1="483.10" x2="651.99" y2="456.45"/>
<line x1="651.35" y1="483.10" x2="641.29" y2="428.49"/>
<line x1="768.28" y1="490.77" x2="673.54" y2="464.44"/>
<line x1="791.00" y1="491.01" x2="673.54" y2="464.44"/>
<line x1="651.99" y1="456.45" x2="641.29" y2="428.49"/>
<line x1="669.83" y1="448.99" x2="830.01" y2="426.82"/>
<line x1="669.83" y1="448.99" x2="641.29" y2="428.49"/>
<line x1="830.01" y1="426.82" x2="641.29" y2="428.49"/>
</g>
<path d="M 704.03,402.39 L 656.70,396.29 L 801.65,367.36 L 759.33,371.47 L 771.12,363.35 L 867.72,332.83 L 832.90,340.47 L 805.70,344.12 L 768.37,335.05 L 679.73,361.25 L 738.47,339.69 L 688.85,344.18 L 726.00,328.89 L 848.56,279.14 L 746.12,318.48 L 800.21,284.62 L 751.28,304.14 L 709.03,316.45 L 805.92,256.08 L 748.48,275.29 L 674.24,297.80 L 665.44,252.62 L 708.43,206.24 L 748.11,167.69 L 590.63,308.47 L 592.24,305.36 L 695.50,204.23 L 628.30,266.66 L 599.37,286.55 L 732.20,148.98 L 674.68,197.56 L 596.40,278.82 L 718.10,122.71 L 630.28,214.46 L 554.83,292.32 L 552.74,288.20 L 570.17,259.33 L 670.39,103.80 L 635.99,148.65 L 648.10,125.84 L 629.39,143.29 L 637.55,126.61 L 580.06,215.05 L 587.08,195.51 L 575.83,177.78 L 599.75,108.54 L 559.07,193.44 L 591.09,98.70 L 504.59,212.89 L 517.50,153.07 L 502.00,128.40 L 471.90,242.33 L 459.22,240.46 L 460.03,98.85 L 456.06,220.52 L 436.22,145.75 L 426.39,30.00 L 428.53,103.22 L 421.25,95.11 L 376.70,114.19 L 394.77,202.61 L 388.96,227.79 L 378.13,207.25 L 369.94,234.53 L 365.59,230.26 L 319.68,160.20 L 300.45,155.63 L 228.17,148.52 L 251.30,191.73 L 315.85,283.70 L 267.02,229.59 L 272.11,236.70 L 304.13,283.71 L 151.45,136.75 L 286.57,278.29 L 185.93,192.04 L 285.84,289.21 L 224.39,240.46 L 265.04,301.79 L 111.42,200.64 L 151.17,245.26 L 118.93,233.81 L 81.25,211.73 L 227.44,317.33 L 189.10,318.76 L 162.91,313.10 L 116.74,304.62 L 77.22,296.77 L 151.10,348.49 L 183.26,358.47 L 64.22,337.29 L 227.42,380.45 L 150.71,364.14 L 244.02,393.17 L 127.05,370.56 L 170.66,381.05 L 272.00,408.08 L 79.28,385.34 L 32.88,382.58 L 156.22,399.09 L 269.10,421.13 L 30.00,452.72 L 189.98,448.00 L 111.50,456.61 L 265.98,448.58 L 122.05,460.46 L 69.75,475.01 L 204.83,481.51 L 183.56,491.83 L 37.83,528.80 L 260.96,483.31 L 155.02,509.47 L 279.53,490.71 L 195.38,534.76 L 95.86,580.04 L 268.42,516.01 L 157.92,584.97 L 182.26,630.52 L 140.68,671.63 L 157.52,681.65 L 175.69,672.13 L 199.35,680.68 L 194.07,755.40 L 228.89,724.00 L 322.23,640.74 L 354.23,590.87 L 270.77,737.11 L 302.10,702.64 L 262.01,809.25 L 359.37,627.49 L 360.90,673.05 L 331.35,764.95 L 358.94,694.08 L 358.97,694.98 L 368.90,715.89 L 379.29,693.10 L 346.19,820.43 L 350.49,849.61 L 392.37,677.47 L 403.93,678.92 L 418.63,621.47 L 403.61,726.25 L 389.66,865.08 L 412.23,713.46 L 427.22,658.76 L 430.58,649.45 L 427.46,699.34 L 433.30,829.50 L 446.61,792.13 L 462.06,823.68 L 496.75,832.49 L 493.67,678.78 L 527.71,784.04 L 543.58,843.47 L 540.54,813.39 L 552.14,798.37 L 520.50,651.14 L 532.30,675.23 L 553.16,724.26 L 530.51,634.74 L 586.63,764.03 L 599.65,792.43 L 568.18,706.03 L 525.49,600.71 L 590.32,708.12 L 637.20,791.70 L 544.38,611.36 L 625.94,740.19 L 594.56,670.53 L 557.17,607.28 L 679.46,774.53 L 614.97,677.11 L 724.61,721.34 L 589.87,569.71 L 612.67,589.34 L 644.26,612.35 L 721.60,664.38 L 596.56,542.56 L 745.33,638.27 L 614.07,548.97 L 608.16,529.20 L 621.78,516.87 L 739.75,553.17 L 821.94,572.70 L 870.00,536.38 L 651.35,483.10 L 716.84,491.17 L 768.28,490.77 L 791.00,491.01 L 740.17,478.34 L 673.54,464.44 L 651.99,456.45 L 669.83,448.99 L 864.63,441.25 L 830.01,426.82 L 840.95,423.15 L 641.29,428.49 L 725.30,423.07 L 796.41,418.73 L 839.54,401.65 Z" stroke="#000000" stroke-width="2.5" fill="none"/>
</svg>
