<?xml version="1.0" encoding="UTF-8"?>
<svg xmlns="http://www.w3.org/2000/svg" width="900" height="900" viewBox="0 0 900 900">
<rect x="0" y="0" width="100%" height="100%" fill="white"/>
<text x="30" y="30" font-family="monospace" font-size="14">dent (n=200, seed=0)</text>
<g stroke="#1f77b4" stroke-width="1" fill="none" opacity="0.60">
<line x1="869.87" y1="422.69" x2="526.30" y2="816.99"/>
<line x1="869.33" y1="410.24" x2="526.30" y2="816.99"/>
<line x1="868.37" y1="397.81" x2="526.30" y2="816.99"/>
<line x1="867.00" y1="385.41" x2="526.30" y2="816.99"/>
<line x1="865.21" y1="373.05" x2="526.30" y2="816.99"/>
<line x1="863.02" y1="360.74" x2="526.30" y2="816.99"/>
<line x1="860.42" y1="348.50" x2="526.30" y2="816.99"/>
<line x1="857.41" y1="336.33" x2="513.29" y2="818.85"/>
<line x1="857.41" y1="336.33" x2="526.30" y2="816.99"/>
<line x1="854.01" y1="324.25" x2="513.29" y2="818.85"/>
<line x1="850.20" y1="312.28" x2="500.22" y2="820.33"/>
<line x1="850.20" y1="312.28" x2="513.29" y2="818.85"/>
<line x1="846.00" y1="300.41" x2="500.22" y2="820.33"/>
<line x1="841.41" y1="288.67" x2="473.93" y2="822.11"/>
<line x1="841.41" y1="288.67" x2="487.09" y2="821.41"/>
<line x1="841.41" y1="288.67" x2="500.22" y2="820.33"/>
<line x1="836.43" y1="277.06" x2="473.93" y2="822.11"/>
<line x1="831.07" y1="265.61" x2="473.93" y2="822.11"/>
<line x1="825.33" y1="254.31" x2="473.93" y2="822.11"/>
<line x1="819.23" y1="243.17" x2="473.93" y2="822.11"/>
<line x1="812.76" y1="232.22" x2="473.93" y2="822.11"/>
<line x1="805.93" y1="221.47" x2="473.93" y2="822.11"/>
<line x1="798.75" y1="210.91" x2="473.93" y2="822.11"/>
<line x1="791.22" y1="200.56" x2="473.93" y2="822.11"/>
<line x1="783.36" y1="190.44" x2="473.93" y2="822.11"/>
<line x1="775.17" y1="180.55" x2="473.93" y2="822.11"/>
<line x1="766.66" y1="170.91" x2="473.93" y2="822.11"/>
<line x1="757.84" y1="161.51" x2="473.93" y2="822.11"/>
<line x1="748.71" y1="152.38" x2="473.93" y2="822.11"/>
<line x1="739.29" y1="143.52" x2="473.93" y2="822.11"/>
<line x1="729.58" y1="134.93" x2="473.93" y2="822.11"/>
<line x1="719.60" y1="126.63" x2="473.93" y2="822.11"/>
<line x1="709.35" y1="118.63" x2="473.93" y2="822.11"/>
<line x1="698.85" y1="110.94" x2="473.93" y2="822.11"/>
<line x1="688.10" y1="103.55" x2="473.93" y2="822.11"/>
<line x1="677.11" y1="96.48" x2="473.93" y2="822.11"/>
<line x1="665.90" y1="89.74" x2="473.93" y2="822.11"/>
<line x1="654.48" y1="83.33" x2="473.93" y2="822.11"/>
<line x1="642.85" y1="77.25" x2="473.93" y2="822.11"/>
<line x1="631.04" y1="71.53" x2="473.93" y2="822.11"/>
<line x1="619.04" y1="66.15" x2="473.93" y2="822.11"/>
<line x1="606.88" y1="61.12" x2="473.93" y2="822.11"/>
<line x1="594.57" y1="56.46" x2="473.93" y2="822.11"/>
<line x1="582.11" y1="52.16" x2="473.93" y2="822.11"/>
<line x1="569.52" y1="48.23" x2="473.93" y2="822.11"/>
<line x1="556.82" y1="44.68" x2="473.93" y2="822.11"/>
<line x1="544.00" y1="41.50" x2="473.93" y2="822.11"/>
<line x1="531.10" y1="38.70" x2="473.93" y2="822.11"/>
<line x1="518.11" y1="36.28" x2="473.93" y2="822.11"/>
<line x1="505.06" y1="34.25" x2="473.93" y2="822.11"/>
<line x1="491.96" y1="32.60" x2="473.93" y2="822.11"/>
<line x1="478.81" y1="31.35" x2="473.93" y2="822.11"/>
<line x1="465.63" y1="30.48" x2="460.75" y2="822.41"/>
<line x1="465.63" y1="30.48" x2="473.93" y2="822.11"/>
<line x1="452.44" y1="30.00" x2="460.75" y2="822.41"/>
<line x1="446.27" y1="288.81" x2="51.31" y2="295.21"/>
<line x1="446.27" y1="288.81" x2="47.36" y2="307.02"/>
<line x1="446.27" y1="288.81" x2="43.80" y2="318.95"/>
<line x1="446.27" y1="288.81" x2="40.65" y2="330.98"/>
<line x1="446.27" y1="288.81" x2="37.89" y2="343.11"/>
<line x1="446.27" y1="288.81" x2="35.55" y2="355.32"/>
<line x1="446.27" y1="288.81" x2="33.62" y2="367.61"/>
<line x1="446.27" y1="288.81" x2="32.09" y2="379.94"/>
<line x1="446.27" y1="288.81" x2="30.98" y2="392.33"/>
<line x1="446.27" y1="288.81" x2="30.28" y2="404.75"/>
<line x1="446.27" y1="288.81" x2="30.00" y2="417.19"/>
<line x1="446.27" y1="288.81" x2="30.13" y2="429.64"/>
<line x1="446.27" y1="288.81" x2="30.67" y2="442.08"/>
<line x1="446.27" y1="288.81" x2="31.63" y2="454.51"/>
<line x1="446.27" y1="288.81" x2="33.00" y2="466.91"/>
<line x1="446.27" y1="288.81" x2="34.79" y2="479.27"/>
<line x1="446.27" y1="288.81" x2="36.98" y2="491.58"/>
<line x1="446.27" y1="288.81" x2="39.58" y2="503.82"/>
<line x1="446.27" y1="288.81" x2="42.59" y2="515.99"/>
<line x1="446.27" y1="288.81" x2="45.99" y2="528.07"/>
<line x1="446.27" y1="288.81" x2="49.80" y2="540.05"/>
<line x1="446.27" y1="288.81" x2="54.00" y2="551.91"/>
<line x1="446.27" y1="288.81" x2="58.59" y2="563.65"/>
<line x1="446.27" y1="288.81" x2="63.57" y2="575.26"/>
<line x1="446.27" y1="288.81" x2="68.93" y2="586.72"/>
<line x1="446.27" y1="288.81" x2="74.67" y2="598.02"/>
<line x1="446.27" y1="288.81" x2="80.77" y2="609.15"/>
<line x1="446.27" y1="288.81" x2="87.24" y2="620.10"/>
<line x1="446.27" y1="288.81" x2="94.07" y2="630.86"/>
<line x1="446.27" y1="288.81" x2="101.25" y2="641.42"/>
<line x1="446.27" y1="288.81" x2="108.78" y2="651.76"/>
<line x1="446.27" y1="288.81" x2="116.64" y2="661.88"/>
<line x1="446.27" y1="288.81" x2="124.83" y2="671.77"/>
<line x1="446.27" y1="288.81" x2="133.34" y2="681.42"/>
<line x1="446.27" y1="288.81" x2="142.16" y2="690.81"/>
<line x1="446.27" y1="288.81" x2="151.29" y2="699.94"/>
<line x1="446.27" y1="288.81" x2="160.71" y2="708.81"/>
<line x1="446.27" y1="288.81" x2="170.42" y2="717.39"/>
<line x1="446.27" y1="288.81" x2="180.40" y2="725.69"/>
<line x1="446.27" y1="288.81" x2="190.65" y2="733.69"/>
<line x1="446.27" y1="288.81" x2="201.15" y2="741.39"/>
<line x1="446.27" y1="288.81" x2="211.90" y2="748.78"/>
<line x1="446.27" y1="288.81" x2="222.89" y2="755.84"/>
<line x1="446.27" y1="288.81" x2="234.10" y2="762.59"/>
<line x1="446.27" y1="288.81" x2="245.52" y2="769.00"/>
<line x1="446.27" y1="288.81" x2="257.15" y2="775.07"/>
<line x1="446.27" y1="288.81" x2="268.96" y2="780.80"/>
<line x1="446.27" y1="288.81" x2="280.96" y2="786.18"/>
<line x1="446.27" y1="288.81" x2="293.12" y2="791.20"/>
<line x1="446.27" y1="288.81" x2="305.43" y2="795.86"/>
<line x1="446.27" y1="288.81" x2="317.89" y2="800.16"/>
<line x1="446.27" y1="288.81" x2="330.48" y2="804.09"/>
<line x1="446.27" y1="288.81" x2="343.18" y2="807.65"/>
<line x1="446.27" y1="288.81" x2="356.00" y2="810.83"/>
<line x1="446.27" y1="288.81" x2="368.90" y2="813.63"/>
<line x1="446.27" y1="288.81" x2="381.89" y2="816.04"/>
<line x1="446.27" y1="288.81" x2="394.94" y2="818.08"/>
<line x1="446.27" y1="288.81" x2="408.04" y2="819.72"/>
<line x1="446.27" y1="288.81" x2="421.19" y2="820.98"/>
<line x1="446.27" y1="288.81" x2="434.37" y2="821.85"/>
<line x1="446.27" y1="288.81" x2="447.56" y2="822.32"/>
<line x1="446.27" y1="288.81" x2="460.75" y2="822.41"/>
<line x1="426.07" y1="30.22" x2="60.39" y2="271.98"/>
<line x1="426.07" y1="30.22" x2="55.66" y2="283.52"/>
<line x1="426.07" y1="30.22" x2="51.31" y2="295.21"/>
<line x1="412.91" y1="30.91" x2="60.39" y2="271.98"/>
<line x1="399.78" y1="32.00" x2="65.51" y2="260.59"/>
<line x1="399.78" y1="32.00" x2="60.39" y2="271.98"/>
<line x1="386.71" y1="33.47" x2="65.51" y2="260.59"/>
<line x1="373.70" y1="35.34" x2="65.51" y2="260.59"/>
<line x1="360.76" y1="37.58" x2="65.51" y2="260.59"/>
<line x1="347.92" y1="40.21" x2="65.51" y2="260.59"/>
<line x1="335.17" y1="43.23" x2="65.51" y2="260.59"/>
<line x1="322.53" y1="46.62" x2="65.51" y2="260.59"/>
<line x1="310.03" y1="50.38" x2="65.51" y2="260.59"/>
<line x1="297.66" y1="54.52" x2="194.51" y2="107.63"/>
<line x1="297.66" y1="54.52" x2="184.16" y2="115.19"/>
<line x1="297.66" y1="54.52" x2="174.08" y2="123.06"/>
<line x1="297.66" y1="54.52" x2="164.27" y2="131.23"/>
<line x1="297.66" y1="54.52" x2="154.74" y2="139.69"/>
<line x1="297.66" y1="54.52" x2="145.50" y2="148.43"/>
<line x1="297.66" y1="54.52" x2="136.57" y2="157.44"/>
<line x1="297.66" y1="54.52" x2="127.94" y2="166.72"/>
<line x1="297.66" y1="54.52" x2="119.63" y2="176.26"/>
<line x1="297.66" y1="54.52" x2="111.65" y2="186.04"/>
<line x1="297.66" y1="54.52" x2="104.00" y2="196.06"/>
<line x1="297.66" y1="54.52" x2="96.69" y2="206.31"/>
<line x1="297.66" y1="54.52" x2="89.73" y2="216.77"/>
<line x1="297.66" y1="54.52" x2="83.13" y2="227.44"/>
<line x1="297.66" y1="54.52" x2="76.88" y2="238.31"/>
<line x1="297.66" y1="54.52" x2="71.01" y2="249.36"/>
<line x1="297.66" y1="54.52" x2="65.51" y2="260.59"/>
<line x1="285.44" y1="59.02" x2="194.51" y2="107.63"/>
<line x1="273.38" y1="63.88" x2="194.51" y2="107.63"/>
<line x1="261.50" y1="69.10" x2="194.51" y2="107.63"/>
<line x1="249.80" y1="74.68" x2="194.51" y2="107.63"/>
<line x1="238.30" y1="80.60" x2="194.51" y2="107.63"/>
<line x1="227.01" y1="86.86" x2="194.51" y2="107.63"/>
<line x1="215.94" y1="93.46" x2="194.51" y2="107.63"/>
<line x1="526.30" y1="816.99" x2="867.91" y2="472.38"/>
<line x1="526.30" y1="816.99" x2="869.02" y2="459.99"/>
<line x1="526.30" y1="816.99" x2="869.72" y2="447.58"/>
<line x1="526.30" y1="816.99" x2="870.00" y2="435.14"/>
<line x1="539.24" y1="814.74" x2="867.91" y2="472.38"/>
<line x1="552.08" y1="812.11" x2="867.91" y2="472.38"/>
<line x1="564.83" y1="809.10" x2="848.69" y2="557.12"/>
<line x1="564.83" y1="809.10" x2="852.64" y2="545.31"/>
<line x1="564.83" y1="809.10" x2="856.20" y2="533.38"/>
<line x1="564.83" y1="809.10" x2="859.35" y2="521.34"/>
<line x1="564.83" y1="809.10" x2="862.11" y2="509.21"/>
<line x1="564.83" y1="809.10" x2="864.45" y2="497.00"/>
<line x1="564.83" y1="809.10" x2="866.38" y2="484.72"/>
<line x1="564.83" y1="809.10" x2="867.91" y2="472.38"/>
<line x1="577.47" y1="805.71" x2="848.69" y2="557.12"/>
<line x1="589.97" y1="801.94" x2="848.69" y2="557.12"/>
<line x1="602.34" y1="797.81" x2="834.49" y2="591.73"/>
<line x1="602.34" y1="797.81" x2="839.61" y2="580.34"/>
<line x1="602.34" y1="797.81" x2="844.34" y2="568.80"/>
<line x1="602.34" y1="797.81" x2="848.69" y2="557.12"/>
<line x1="614.56" y1="793.31" x2="834.49" y2="591.73"/>
<line x1="626.62" y1="788.44" x2="834.49" y2="591.73"/>
<line x1="638.50" y1="783.22" x2="834.49" y2="591.73"/>
<line x1="650.20" y1="777.65" x2="834.49" y2="591.73"/>
<line x1="661.70" y1="771.72" x2="834.49" y2="591.73"/>
<line x1="672.99" y1="765.46" x2="834.49" y2="591.73"/>
<line x1="684.06" y1="758.86" x2="834.49" y2="591.73"/>
<line x1="694.90" y1="751.94" x2="834.49" y2="591.73"/>
<line x1="705.49" y1="744.69" x2="834.49" y2="591.73"/>
<line x1="715.84" y1="737.13" x2="834.49" y2="591.73"/>
<line x1="725.92" y1="729.26" x2="834.49" y2="591.73"/>
<line x1="735.73" y1="721.10" x2="834.49" y2="591.73"/>
<line x1="745.26" y1="712.64" x2="834.49" y2="591.73"/>
<line x1="754.50" y1="703.90" x2="834.49" y2="591.73"/>
<line x1="763.43" y1="694.88" x2="834.49" y2="591.73"/>
<line x1="772.06" y1="685.60" x2="834.49" y2="591.73"/>
<line x1="780.37" y1="676.06" x2="834.49" y2="591.73"/>
<line x1="788.35" y1="666.28" x2="834.49" y2="591.73"/>
<line x1="796.00" y1="656.26" x2="834.49" y2="591.73"/>
<line x1="803.31" y1="646.01" x2="834.49" y2="591.73"/>
<line x1="810.27" y1="635.55" x2="834.49" y2="591.73"/>
<line x1="816.87" y1="624.88" x2="834.49" y2="591.73"/>
<line x1="823.12" y1="614.01" x2="834.49" y2="591.73"/>
</g>
<path d="M 869.87,422.69 L 869.33,410.24 L 868.37,397.81 L 867.00,385.41 L 865.21,373.05 L 863.02,360.74 L 860.42,348.50 L 857.41,336.33 L 854.01,324.25 L 850.20,312.28 L 846.00,300.41 L 841.41,288.67 L 836.43,277.06 L 831.07,265.61 L 825.33,254.31 L 819.23,243.17 L 812.76,232.22 L 805.93,221.47 L 798.75,210.91 L 791.22,200.56 L 783.36,190.44 L 775.17,180.55 L 766.66,170.91 L 757.84,161.51 L 748.71,152.38 L 739.29,143.52 L 729.58,134.93 L 719.60,126.63 L 709.35,118.63 L 698.85,110.94 L 688.10,103.55 L 677.11,96.48 L 665.90,89.74 L 654.48,83.33 L 642.85,77.25 L 631.04,71.53 L 619.04,66.15 L 606.88,61.12 L 594.57,56.46 L 582.11,52.16 L 569.52,48.23 L 556.82,44.68 L 544.00,41.50 L 531.10,38.70 L 518.11,36.28 L 505.06,34.25 L 491.96,32.60 L 478.81,31.35 L 465.63,30.48 L 452.44,30.00 L 446.27,288.81 L 426.07,30.22 L 412.91,30.91 L 399.78,32.00 L 386.71,33.47 L 373.70,35.34 L 360.76,37.58 L 347.92,40.21 L 335.17,43.23 L 322.53,46.62 L 310.03,50.38 L 297.66,54.52 L 285.44,59.02 L 273.38,63.88 L 261.50,69.10 L 249.80,74.68 L 238.30,80.60 L 227.01,86.86 L 215.94,93.46 L 205.10,100.39 L 194.51,107.63 L 184.16,115.19 L 174.08,123.06 L 164.27,131.23 L 154.74,139.69 L 145.50,148.43 L 136.57,157.44 L 127.94,166.72 L 119.63,176.26 L 111.65,186.04 L 104.00,196.06 L 96.69,206.31 L 89.73,216.77 L 83.13,227.44 L 76.88,238.31 L 71.01,249.36 L 65.51,260.59 L 60.39,271.98 L 55.66,283.52 L 51.31,295.21 L 47.36,307.02 L 43.80,318.95 L 40.65,330.98 L 37.89,343.11 L 35.55,355.32 L 33.62,367.61 L 32.09,379.94 L 30.98,392.33 L 30.28,404.75 L 30.00,417.19 L 30.13,429.64 L 30.67,442.08 L 31.63,454.51 L 33.00,466.91 L 34.79,479.27 L 36.98,491.58 L 39.58,503.82 L 42.59,515.99 L 45.99,528.07 L 49.80,540.05 L 54.00,551.91 L 58.59,563.65 L 63.57,575.26 L 68.93,586.72 L 74.67,598.02 L 80.77,609.15 L 87.24,620.10 L 94.07,630.86 L 101.25,641.42 L 108.78,651.76 L 116.64,661.88 L 124.83,671.77 L 133.34,681.42 L 142.16,690.81 L 151.29,699.94 L 160.71,708.81 L 170.42,717.39 L 180.40,725.69 L 190.65,733.69 L 201.15,741.39 L 211.90,748.78 L 222.89,755.84 L 234.10,762.59 L 245.52,769.00 L 257.15,775.07 L 268.96,780.80 L 280.96,786.18 L 293.12,791.20 L 305.43,795.86 L 317.89,800.16 L 330.48,804.09 L 343.18,807.65 L 356.00,810.83 L 368.90,813.63 L 381.89,816.04 L 394.94,818.08 L 408.04,819.72 L 421.19,820.98 L 434.37,821.85 L 447.56,822.32 L 460.75,822.41 L 473.93,822.11 L 487.09,821.41 L 500.22,820.33 L 513.29,818.85 L 526.30,816.99 L 539.24,814.74 L 552.08,812.11 L 564.83,809.10 L 577.47,805.71 L 589.97,801.94 L 602.34,797.81 L 614.56,793.31 L 626.62,788.44 L 638.50,783.22 L 650.20,777.65 L 661.70,771.72 L 672.99,765.46 L 684.06,758.86 L 694.90,751.94 L 705.49,744.69 L 715.84,737.13 L 725.92,729.26 L 735.73,721.10 L 745.26,712.64 L 754.50,703.90 L 763.43,694.88 L 772.06,685.60 L 780.37,676.06 L 788.35,666.28 L 796.00,656.26 L 803.31,646.01 L 810.27,635.55 L 816.87,624.88 L 823.12,614.01 L 828.99,602.96 L 834.49,591.73 L 839.61,580.34 L 844.34,568.80 L 848.69,557.12 L 852.64,545.31 L 856.20,533.38 L 859.35,521.34 L 862.11,509.21 L 864.45,497.00 L 866.38,484.72 L 867.91,472.38 L 869.02,459.99 L 869.72,447.58 L 870.00,435.14 Z" stroke="#000000" stroke-width="2.5" fill="none"/>
</svg>
